<svg width="1150" height="408" viewBox="0 0 1150 408" fill="none" xmlns="http://www.w3.org/2000/svg">
<g filter="url(#filter0_d)">
<path d="M4 20C4 8.9543 12.9543 0 24 0H1126C1137.05 0 1146 8.95431 1146 20V50H4V20Z" fill="#497399"/>
</g>
<g filter="url(#filter1_d)">
<path d="M4 50H1146V380C1146 391.046 1137.05 400 1126 400H24C12.9543 400 4 391.046 4 380V50Z" fill="#3F6182"/>
</g>
<path d="M271.343 298.208C261.276 298.208 252.569 296.044 245.22 291.715C237.871 287.286 232.184 280.994 228.157 272.84C224.231 264.585 222.268 254.871 222.268 243.697C222.268 232.624 224.231 223.01 228.157 214.856C232.184 206.601 237.871 200.31 245.22 195.981C252.569 191.552 261.276 189.337 271.343 189.337C278.088 189.337 284.43 190.444 290.369 192.659C296.409 194.773 301.644 197.843 306.073 201.87C307.684 203.38 308.489 205.142 308.489 207.155C308.489 208.564 308.086 209.823 307.281 210.93C306.476 211.937 305.519 212.44 304.412 212.44C303.204 212.44 301.744 211.886 300.033 210.779C294.899 206.752 290.218 203.934 285.99 202.323C281.863 200.712 277.081 199.907 271.645 199.907C259.968 199.907 250.958 203.732 244.616 211.383C238.375 218.933 235.254 229.704 235.254 243.697C235.254 257.79 238.375 268.662 244.616 276.313C250.958 283.863 259.968 287.638 271.645 287.638C276.98 287.638 281.762 286.833 285.99 285.222C290.218 283.611 294.899 280.793 300.033 276.766C301.744 275.659 303.204 275.105 304.412 275.105C305.519 275.105 306.476 275.608 307.281 276.615C308.086 277.622 308.489 278.88 308.489 280.39C308.489 282.403 307.684 284.165 306.073 285.675C301.644 289.702 296.409 292.822 290.369 295.037C284.43 297.151 278.088 298.208 271.343 298.208ZM355.6 298.057C348.654 298.057 342.513 296.497 337.178 293.376C331.943 290.255 327.866 285.826 324.947 280.088C322.128 274.249 320.719 267.505 320.719 259.854C320.719 252.203 322.128 245.509 324.947 239.771C327.866 233.932 331.943 229.453 337.178 226.332C342.513 223.211 348.654 221.651 355.6 221.651C362.546 221.651 368.687 223.211 374.022 226.332C379.357 229.453 383.434 233.932 386.253 239.771C389.172 245.509 390.632 252.203 390.632 259.854C390.632 267.505 389.172 274.249 386.253 280.088C383.434 285.826 379.357 290.255 374.022 293.376C368.687 296.497 362.546 298.057 355.6 298.057ZM355.6 287.94C362.848 287.94 368.385 285.574 372.21 280.843C376.136 276.011 378.099 269.015 378.099 259.854C378.099 250.895 376.136 243.999 372.21 239.167C368.284 234.234 362.747 231.768 355.6 231.768C348.453 231.768 342.916 234.234 338.99 239.167C335.064 243.999 333.101 250.895 333.101 259.854C333.101 268.914 335.014 275.86 338.839 280.692C342.765 285.524 348.352 287.94 355.6 287.94ZM467.897 189.79C469.809 189.79 471.319 190.344 472.427 191.451C473.534 192.558 474.088 193.968 474.088 195.679V291.715C474.088 293.527 473.534 294.987 472.427 296.094C471.319 297.201 469.809 297.755 467.897 297.755C465.984 297.755 464.474 297.201 463.367 296.094C462.36 294.987 461.857 293.527 461.857 291.715V283.561C459.642 288.192 456.37 291.765 452.042 294.282C447.814 296.799 442.831 298.057 437.093 298.057C430.65 298.057 424.962 296.446 420.03 293.225C415.097 290.004 411.272 285.524 408.554 279.786C405.836 273.947 404.477 267.203 404.477 259.552C404.477 252.002 405.836 245.358 408.554 239.62C411.272 233.882 415.097 229.453 420.03 226.332C424.962 223.211 430.65 221.651 437.093 221.651C442.831 221.651 447.814 222.909 452.042 225.426C456.37 227.943 459.642 231.516 461.857 236.147V195.679C461.857 193.867 462.36 192.458 463.367 191.451C464.474 190.344 465.984 189.79 467.897 189.79ZM439.509 287.94C446.656 287.94 452.142 285.524 455.968 280.692C459.894 275.759 461.857 268.813 461.857 259.854C461.857 250.895 459.894 243.999 455.968 239.167C452.142 234.335 446.656 231.919 439.509 231.919C432.361 231.919 426.774 234.335 422.748 239.167C418.822 243.999 416.859 250.794 416.859 259.552C416.859 268.511 418.822 275.508 422.748 280.541C426.774 285.474 432.361 287.94 439.509 287.94ZM553.669 279.937C554.777 279.937 555.733 280.39 556.538 281.296C557.344 282.202 557.746 283.36 557.746 284.769C557.746 287.286 555.985 289.601 552.461 291.715C548.837 293.829 545.012 295.44 540.985 296.547C536.959 297.554 533.033 298.057 529.207 298.057C517.832 298.057 508.822 294.685 502.178 287.94C495.635 281.195 492.363 271.884 492.363 260.005C492.363 252.455 493.823 245.811 496.742 240.073C499.662 234.234 503.739 229.704 508.973 226.483C514.309 223.262 520.349 221.651 527.093 221.651C536.657 221.651 544.257 224.772 549.894 231.013C555.532 237.254 558.35 245.71 558.35 256.381C558.35 258.394 557.948 259.854 557.142 260.76C556.337 261.666 555.028 262.119 553.216 262.119H504.594C505.5 279.434 513.705 288.091 529.207 288.091C533.133 288.091 536.506 287.588 539.324 286.581C542.143 285.474 545.163 284.014 548.384 282.202C551.002 280.692 552.763 279.937 553.669 279.937ZM527.244 231.164C520.802 231.164 515.617 233.177 511.691 237.204C507.866 241.231 505.601 246.918 504.896 254.267H547.629C547.428 246.818 545.566 241.13 542.042 237.204C538.519 233.177 533.586 231.164 527.244 231.164ZM612.158 298.208C604.608 298.208 597.36 297.101 590.414 294.886C583.569 292.571 578.083 289.5 573.955 285.675C572.445 284.266 571.69 282.504 571.69 280.39C571.69 278.981 572.093 277.773 572.898 276.766C573.704 275.659 574.66 275.105 575.767 275.105C577.076 275.105 578.485 275.659 579.995 276.766C589.357 284.014 600.028 287.638 612.007 287.638C620.665 287.638 627.309 285.977 631.939 282.655C636.57 279.333 638.885 274.602 638.885 268.461C638.885 264.938 637.778 262.119 635.563 260.005C633.349 257.79 630.429 256.029 626.805 254.72C623.181 253.411 618.299 252.052 612.158 250.643C603.904 248.73 597.109 246.717 591.773 244.603C586.539 242.489 582.26 239.469 578.938 235.543C575.717 231.617 574.106 226.483 574.106 220.141C574.106 214.101 575.717 208.766 578.938 204.135C582.26 199.404 586.841 195.78 592.679 193.263C598.619 190.646 605.363 189.337 612.913 189.337C619.96 189.337 626.503 190.444 632.543 192.659C638.684 194.773 643.818 197.843 647.945 201.87C649.556 203.481 650.361 205.242 650.361 207.155C650.361 208.564 649.959 209.823 649.153 210.93C648.348 211.937 647.392 212.44 646.284 212.44C645.177 212.44 643.717 211.886 641.905 210.779C636.973 206.752 632.392 203.934 628.164 202.323C623.936 200.712 618.853 199.907 612.913 199.907C604.558 199.907 598.065 201.669 593.434 205.192C588.804 208.615 586.488 213.447 586.488 219.688C586.488 225.023 588.502 229.05 592.528 231.768C596.656 234.385 602.947 236.701 611.403 238.714C620.564 240.929 627.762 242.992 632.996 244.905C638.231 246.717 642.56 249.485 645.982 253.21C649.506 256.935 651.267 261.918 651.267 268.159C651.267 274.098 649.606 279.333 646.284 283.863C643.063 288.393 638.483 291.916 632.543 294.433C626.604 296.95 619.809 298.208 612.158 298.208ZM703.099 288.091C706.623 288.393 708.384 290.004 708.384 292.923C708.384 294.634 707.73 295.943 706.421 296.849C705.213 297.654 703.351 297.956 700.834 297.755L696.757 297.453C688.704 296.849 682.765 294.433 678.939 290.205C675.114 285.977 673.201 279.585 673.201 271.028V233.127H663.084C661.373 233.127 660.014 232.724 659.007 231.919C658.101 231.013 657.648 229.855 657.648 228.446C657.648 226.936 658.101 225.728 659.007 224.822C660.014 223.916 661.373 223.463 663.084 223.463H673.201V206.4C673.201 204.487 673.755 203.028 674.862 202.021C675.97 200.914 677.48 200.36 679.392 200.36C681.204 200.36 682.664 200.914 683.771 202.021C684.879 203.028 685.432 204.487 685.432 206.4V223.463H702.193C703.804 223.463 705.062 223.916 705.968 224.822C706.975 225.728 707.478 226.936 707.478 228.446C707.478 229.855 706.975 231.013 705.968 231.919C705.062 232.724 703.804 233.127 702.193 233.127H685.432V271.632C685.432 277.169 686.54 281.195 688.754 283.712C691.07 286.128 694.492 287.487 699.022 287.789L703.099 288.091ZM750.49 221.651C768.912 221.651 778.123 231.315 778.123 250.643V291.715C778.123 293.527 777.569 294.987 776.462 296.094C775.455 297.201 774.046 297.755 772.234 297.755C770.422 297.755 768.962 297.201 767.855 296.094C766.747 294.987 766.194 293.527 766.194 291.715V284.467C764.281 288.796 761.362 292.168 757.436 294.584C753.51 296.899 748.98 298.057 743.846 298.057C739.114 298.057 734.735 297.101 730.709 295.188C726.783 293.275 723.662 290.608 721.347 287.185C719.031 283.762 717.874 279.987 717.874 275.86C717.874 270.323 719.283 266.045 722.102 263.025C724.92 259.904 729.551 257.69 735.994 256.381C742.436 254.972 751.396 254.267 762.872 254.267H766.194V249.284C766.194 243.244 764.935 238.815 762.419 235.996C760.003 233.177 756.026 231.768 750.49 231.768C743.644 231.768 736.698 233.63 729.652 237.355C726.934 239.066 725.021 239.922 723.914 239.922C722.706 239.922 721.699 239.469 720.894 238.563C720.088 237.657 719.686 236.499 719.686 235.09C719.686 233.681 720.088 232.473 720.894 231.466C721.8 230.359 723.209 229.251 725.122 228.144C728.645 226.131 732.621 224.57 737.051 223.463C741.581 222.255 746.06 221.651 750.49 221.651ZM745.507 288.393C751.547 288.393 756.479 286.38 760.305 282.353C764.231 278.226 766.194 272.941 766.194 266.498V262.119H763.476C754.617 262.119 747.872 262.522 743.242 263.327C738.611 264.032 735.289 265.29 733.276 267.102C731.363 268.813 730.407 271.38 730.407 274.803C730.407 278.729 731.816 282.001 734.635 284.618C737.554 287.135 741.178 288.393 745.507 288.393ZM830.863 298.057C824.018 298.057 817.927 296.497 812.592 293.376C807.357 290.255 803.28 285.826 800.361 280.088C797.542 274.35 796.133 267.706 796.133 260.156C796.133 252.606 797.593 245.912 800.512 240.073C803.532 234.234 807.71 229.704 813.045 226.483C818.38 223.262 824.521 221.651 831.467 221.651C835.292 221.651 839.067 222.205 842.792 223.312C846.617 224.319 849.939 225.829 852.758 227.842C854.57 229.05 855.828 230.258 856.533 231.466C857.338 232.573 857.741 233.832 857.741 235.241C857.741 236.65 857.338 237.808 856.533 238.714C855.828 239.62 854.872 240.073 853.664 240.073C852.959 240.073 852.204 239.872 851.399 239.469C850.594 239.066 849.889 238.664 849.285 238.261C848.782 237.858 848.429 237.607 848.228 237.506C845.611 235.795 843.094 234.436 840.678 233.429C838.363 232.422 835.494 231.919 832.071 231.919C824.722 231.919 818.984 234.436 814.857 239.469C810.83 244.402 808.817 251.297 808.817 260.156C808.817 269.015 810.83 275.86 814.857 280.692C818.984 285.524 824.722 287.94 832.071 287.94C835.494 287.94 838.413 287.437 840.829 286.43C843.346 285.423 845.862 284.064 848.379 282.353C849.486 281.648 850.543 281.044 851.55 280.541C852.557 280.038 853.412 279.786 854.117 279.786C855.224 279.786 856.13 280.239 856.835 281.145C857.64 282.051 858.043 283.209 858.043 284.618C858.043 285.927 857.691 287.135 856.986 288.242C856.281 289.249 854.973 290.406 853.06 291.715C850.241 293.628 846.819 295.188 842.792 296.396C838.866 297.503 834.89 298.057 830.863 298.057ZM931.507 287.336C933.118 288.846 933.923 290.457 933.923 292.168C933.923 293.678 933.369 294.987 932.262 296.094C931.255 297.201 929.997 297.755 928.487 297.755C927.178 297.755 925.819 297.151 924.41 295.943L884.999 261.968V291.715C884.999 293.628 884.395 295.138 883.187 296.245C882.08 297.252 880.67 297.755 878.959 297.755C877.147 297.755 875.637 297.252 874.429 296.245C873.322 295.138 872.768 293.628 872.768 291.715V195.83C872.768 193.917 873.322 192.458 874.429 191.451C875.637 190.344 877.147 189.79 878.959 189.79C880.67 189.79 882.08 190.344 883.187 191.451C884.395 192.458 884.999 193.917 884.999 195.83V257.136L921.088 224.067C922.296 222.859 923.655 222.255 925.165 222.255C926.675 222.255 927.984 222.809 929.091 223.916C930.198 225.023 930.752 226.332 930.752 227.842C930.752 229.553 930.047 231.063 928.638 232.372L898.891 258.948L931.507 287.336Z" fill="white"/>
<path d="M473.974 17.1504V19.5088H479.364V30.6562H473.974V33H487.245V30.6562H482.074V17.1504H473.974ZM479.013 12.9902C479.013 13.4297 479.145 13.7959 479.408 14.0889C479.682 14.3818 480.092 14.5283 480.639 14.5283C481.176 14.5283 481.581 14.3818 481.854 14.0889C482.128 13.7959 482.265 13.4297 482.265 12.9902C482.265 12.7461 482.226 12.5215 482.147 12.3164C482.069 12.1113 481.952 11.9404 481.796 11.8037C481.669 11.6768 481.508 11.5791 481.312 11.5107C481.117 11.4326 480.893 11.3936 480.639 11.3936C480.385 11.3936 480.155 11.4326 479.95 11.5107C479.755 11.5791 479.594 11.6768 479.467 11.8037C479.311 11.9502 479.193 12.126 479.115 12.3311C479.047 12.5361 479.013 12.7559 479.013 12.9902ZM491.566 33H494.276V21.6328C494.462 21.291 494.677 20.9785 494.921 20.6953C495.175 20.4121 495.448 20.1631 495.741 19.9482C496.103 19.7041 496.498 19.5137 496.928 19.377C497.357 19.2305 497.821 19.1572 498.319 19.1572C498.896 19.1572 499.403 19.2256 499.843 19.3623C500.292 19.499 500.673 19.7188 500.985 20.0215C501.288 20.3242 501.518 20.7197 501.674 21.208C501.83 21.6963 501.908 22.292 501.908 22.9951V33H504.618V22.9365C504.618 21.8818 504.486 20.9736 504.223 20.2119C503.969 19.4404 503.603 18.8057 503.124 18.3076C502.646 17.8096 502.064 17.4434 501.381 17.209C500.707 16.9746 499.955 16.8574 499.125 16.8574C498.51 16.8672 497.924 16.96 497.367 17.1357C496.82 17.3018 496.312 17.541 495.844 17.8535C495.531 18.0586 495.233 18.3027 494.95 18.5859C494.677 18.8594 494.423 19.1621 494.188 19.4941L493.998 17.1504H491.566V33ZM520.116 28.7959C520.116 29.0498 520.067 29.2891 519.97 29.5137C519.872 29.7383 519.73 29.9434 519.545 30.1289C519.242 30.4316 518.822 30.6709 518.285 30.8467C517.748 31.0127 517.118 31.0957 516.396 31.0957C515.937 31.0957 515.473 31.0469 515.004 30.9492C514.535 30.8516 514.11 30.6855 513.729 30.4512C513.339 30.2168 513.012 29.9092 512.748 29.5283C512.494 29.1475 512.348 28.6787 512.309 28.1221H509.599C509.599 28.7959 509.75 29.4453 510.053 30.0703C510.365 30.6953 510.814 31.2422 511.4 31.7109C511.977 32.1895 512.685 32.5752 513.524 32.8682C514.364 33.1514 515.321 33.293 516.396 33.293C517.333 33.293 518.197 33.1807 518.988 32.9561C519.779 32.7314 520.458 32.4141 521.024 32.0039C521.591 31.5938 522.03 31.1006 522.343 30.5244C522.665 29.9482 522.826 29.3086 522.826 28.6055C522.826 27.9512 522.685 27.375 522.401 26.877C522.128 26.3789 521.728 25.9395 521.2 25.5586C520.673 25.1875 520.023 24.8701 519.252 24.6064C518.48 24.333 517.606 24.0938 516.63 23.8887C515.888 23.7422 515.272 23.5908 514.784 23.4346C514.306 23.2783 513.925 23.1025 513.642 22.9072C513.349 22.7119 513.144 22.4922 513.026 22.248C512.909 22.0039 512.851 21.7256 512.851 21.4131C512.851 21.1104 512.924 20.8174 513.07 20.5342C513.217 20.251 513.437 20.002 513.729 19.7871C514.013 19.5723 514.369 19.4014 514.799 19.2744C515.238 19.1475 515.746 19.084 516.322 19.084C516.879 19.084 517.377 19.1621 517.816 19.3184C518.266 19.4746 518.646 19.6797 518.959 19.9336C519.271 20.1875 519.516 20.4805 519.691 20.8125C519.867 21.1348 519.955 21.4668 519.955 21.8086H522.665C522.665 21.1152 522.514 20.4707 522.211 19.875C521.918 19.2695 521.498 18.7422 520.951 18.293C520.404 17.8438 519.74 17.4922 518.959 17.2383C518.178 16.9844 517.299 16.8574 516.322 16.8574C515.414 16.8574 514.579 16.9795 513.817 17.2236C513.065 17.4678 512.416 17.7998 511.869 18.2197C511.322 18.6396 510.897 19.1328 510.595 19.6992C510.292 20.2559 510.141 20.8564 510.141 21.501C510.141 22.1553 510.287 22.7314 510.58 23.2295C510.873 23.7178 511.288 24.1426 511.825 24.5039C512.353 24.875 512.987 25.1924 513.729 25.4561C514.481 25.7197 515.312 25.9443 516.22 26.1299C516.962 26.2764 517.582 26.4424 518.08 26.6279C518.578 26.8037 518.979 26.999 519.281 27.2139C519.584 27.4287 519.799 27.668 519.926 27.9316C520.053 28.1855 520.116 28.4736 520.116 28.7959ZM534.354 31.0957C533.505 31.0957 532.792 30.9297 532.216 30.5977C531.649 30.2559 531.195 29.8115 530.854 29.2646C530.502 28.7275 530.248 28.1221 530.092 27.4482C529.945 26.7646 529.872 26.0762 529.872 25.3828V24.7676C529.872 24.084 529.945 23.4053 530.092 22.7314C530.248 22.0576 530.502 21.4473 530.854 20.9004C531.205 20.3633 531.664 19.9287 532.23 19.5967C532.807 19.2549 533.515 19.084 534.354 19.084C534.901 19.084 535.409 19.1768 535.878 19.3623C536.356 19.5479 536.767 19.8018 537.108 20.124C537.45 20.4463 537.719 20.8223 537.914 21.252C538.119 21.6719 538.227 22.1211 538.236 22.5996H540.8C540.8 21.7988 540.639 21.0469 540.316 20.3438C539.994 19.6406 539.55 19.0303 538.983 18.5127C538.407 18.0049 537.724 17.6045 536.933 17.3115C536.151 17.0088 535.292 16.8574 534.354 16.8574C533.153 16.8574 532.104 17.0723 531.205 17.502C530.307 17.9316 529.56 18.5078 528.964 19.2305C528.358 19.9629 527.904 20.8076 527.602 21.7646C527.299 22.7217 527.147 23.7227 527.147 24.7676V25.3828C527.147 26.4375 527.299 27.4434 527.602 28.4004C527.904 29.3477 528.358 30.1826 528.964 30.9053C529.56 31.6377 530.307 32.2188 531.205 32.6484C532.104 33.0781 533.153 33.293 534.354 33.293C535.194 33.293 536 33.1514 536.771 32.8682C537.543 32.5752 538.227 32.1846 538.822 31.6963C539.418 31.2178 539.892 30.6611 540.243 30.0264C540.604 29.3818 540.79 28.708 540.8 28.0049H538.236C538.227 28.4443 538.109 28.8545 537.885 29.2354C537.67 29.6064 537.382 29.9287 537.021 30.2021C536.659 30.4854 536.244 30.7051 535.775 30.8613C535.316 31.0176 534.843 31.0957 534.354 31.0957ZM556.005 16.8574C554.853 16.8574 553.822 17.1113 552.914 17.6191C552.016 18.1172 551.244 18.8008 550.6 19.6699L550.585 19.2744L550.468 17.1504H547.89V33H550.614V22.834C550.79 22.3457 551.01 21.9062 551.273 21.5156C551.547 21.1152 551.864 20.7783 552.226 20.5049C552.626 20.1924 553.095 19.958 553.632 19.8018C554.169 19.6357 554.77 19.5527 555.434 19.5527C555.951 19.5527 556.444 19.582 556.913 19.6406C557.392 19.6895 557.895 19.7725 558.422 19.8896L558.788 17.2383C558.515 17.1211 558.104 17.0283 557.558 16.96C557.021 16.8916 556.503 16.8574 556.005 16.8574ZM570.639 33.293C572.182 33.293 573.476 32.9854 574.521 32.3701C575.575 31.7451 576.366 31.0322 576.894 30.2314L575.238 28.9424C574.74 29.5869 574.115 30.1045 573.363 30.4951C572.611 30.8857 571.752 31.0811 570.785 31.0811C570.053 31.0811 569.384 30.9443 568.778 30.6709C568.173 30.3975 567.655 30.0215 567.226 29.543C566.806 29.0938 566.474 28.5762 566.229 27.9902C565.995 27.4043 565.844 26.7256 565.775 25.9541V25.8516H577.099V24.6357C577.099 23.5322 576.957 22.5068 576.674 21.5596C576.4 20.6123 575.98 19.7871 575.414 19.084C574.848 18.3906 574.135 17.8486 573.275 17.458C572.426 17.0576 571.43 16.8574 570.287 16.8574C569.379 16.8574 568.49 17.043 567.621 17.4141C566.762 17.7852 565.995 18.3174 565.321 19.0107C564.638 19.7139 564.091 20.5732 563.681 21.5889C563.271 22.5947 563.065 23.7373 563.065 25.0166V25.6318C563.065 26.7354 563.251 27.7559 563.622 28.6934C563.993 29.6309 564.511 30.4414 565.175 31.125C565.839 31.8086 566.635 32.3408 567.562 32.7217C568.5 33.1025 569.525 33.293 570.639 33.293ZM570.287 19.084C570.98 19.084 571.576 19.2109 572.074 19.4648C572.582 19.7188 573.002 20.0508 573.334 20.4609C573.666 20.8711 573.925 21.3594 574.11 21.9258C574.296 22.4824 574.389 23.0049 574.389 23.4932V23.625H565.863C565.971 22.8926 566.156 22.248 566.42 21.6914C566.693 21.125 567.025 20.6465 567.416 20.2559C567.807 19.875 568.246 19.5869 568.734 19.3916C569.223 19.1865 569.74 19.084 570.287 19.084ZM587.06 33H589.125L595.585 17.1504H592.816L588.378 29.1035L588.114 30.085L587.865 29.1035L583.324 17.1504H580.541L587.06 33ZM610.087 33H612.914V32.7656C612.738 32.3262 612.602 31.8135 612.504 31.2275C612.406 30.6318 612.357 30.0703 612.357 29.543V22.1748C612.357 21.2861 612.196 20.5098 611.874 19.8457C611.552 19.1816 611.112 18.625 610.556 18.1758C609.989 17.7363 609.32 17.4092 608.549 17.1943C607.777 16.9697 606.942 16.8574 606.044 16.8574C605.058 16.8574 604.174 16.9941 603.393 17.2676C602.621 17.541 601.967 17.8975 601.43 18.3369C600.883 18.7861 600.463 19.2891 600.17 19.8457C599.887 20.4023 599.74 20.9688 599.73 21.5449H602.455C602.455 21.2129 602.533 20.8955 602.689 20.5928C602.855 20.2803 603.085 20.0117 603.378 19.7871C603.671 19.5625 604.027 19.3818 604.447 19.2451C604.877 19.1084 605.36 19.04 605.897 19.04C606.474 19.04 606.991 19.1133 607.45 19.2598C607.919 19.4062 608.314 19.6113 608.637 19.875C608.959 20.1484 609.208 20.4756 609.384 20.8564C609.56 21.2373 609.647 21.667 609.647 22.1455V23.3906H606.688C605.585 23.3906 604.584 23.498 603.686 23.7129C602.797 23.9277 602.035 24.25 601.4 24.6797C600.766 25.1191 600.272 25.666 599.921 26.3203C599.579 26.9746 599.408 27.7363 599.408 28.6055C599.408 29.2695 599.535 29.8896 599.789 30.4658C600.053 31.0322 600.424 31.5205 600.902 31.9307C601.371 32.3506 601.942 32.6826 602.616 32.9268C603.3 33.1709 604.062 33.293 604.901 33.293C605.419 33.293 605.907 33.2393 606.366 33.1318C606.825 33.0244 607.26 32.8779 607.67 32.6924C608.07 32.5068 608.437 32.292 608.769 32.0479C609.11 31.8037 609.418 31.5449 609.691 31.2715C609.721 31.6035 609.765 31.9258 609.823 32.2383C609.892 32.541 609.979 32.7949 610.087 33ZM605.297 30.9346C604.77 30.9346 604.306 30.8662 603.905 30.7295C603.505 30.5928 603.173 30.4023 602.909 30.1582C602.646 29.9238 602.445 29.6406 602.309 29.3086C602.182 28.9766 602.118 28.6152 602.118 28.2246C602.118 27.8145 602.191 27.4482 602.338 27.126C602.494 26.8037 602.719 26.5254 603.012 26.291C603.422 25.959 603.974 25.7148 604.667 25.5586C605.37 25.3926 606.19 25.3096 607.128 25.3096H609.647V28.5176C609.491 28.8301 609.276 29.1328 609.003 29.4258C608.729 29.709 608.407 29.9629 608.036 30.1875C607.655 30.4121 607.235 30.5928 606.776 30.7295C606.317 30.8662 605.824 30.9346 605.297 30.9346ZM629.54 24.7822V22.5557H618.334V24.7822H629.54ZM646.239 28.7959C646.239 29.0498 646.19 29.2891 646.093 29.5137C645.995 29.7383 645.854 29.9434 645.668 30.1289C645.365 30.4316 644.945 30.6709 644.408 30.8467C643.871 31.0127 643.241 31.0957 642.519 31.0957C642.06 31.0957 641.596 31.0469 641.127 30.9492C640.658 30.8516 640.233 30.6855 639.853 30.4512C639.462 30.2168 639.135 29.9092 638.871 29.5283C638.617 29.1475 638.471 28.6787 638.432 28.1221H635.722C635.722 28.7959 635.873 29.4453 636.176 30.0703C636.488 30.6953 636.938 31.2422 637.523 31.7109C638.1 32.1895 638.808 32.5752 639.647 32.8682C640.487 33.1514 641.444 33.293 642.519 33.293C643.456 33.293 644.32 33.1807 645.111 32.9561C645.902 32.7314 646.581 32.4141 647.147 32.0039C647.714 31.5938 648.153 31.1006 648.466 30.5244C648.788 29.9482 648.949 29.3086 648.949 28.6055C648.949 27.9512 648.808 27.375 648.524 26.877C648.251 26.3789 647.851 25.9395 647.323 25.5586C646.796 25.1875 646.146 24.8701 645.375 24.6064C644.604 24.333 643.729 24.0938 642.753 23.8887C642.011 23.7422 641.396 23.5908 640.907 23.4346C640.429 23.2783 640.048 23.1025 639.765 22.9072C639.472 22.7119 639.267 22.4922 639.149 22.248C639.032 22.0039 638.974 21.7256 638.974 21.4131C638.974 21.1104 639.047 20.8174 639.193 20.5342C639.34 20.251 639.56 20.002 639.853 19.7871C640.136 19.5723 640.492 19.4014 640.922 19.2744C641.361 19.1475 641.869 19.084 642.445 19.084C643.002 19.084 643.5 19.1621 643.939 19.3184C644.389 19.4746 644.77 19.6797 645.082 19.9336C645.395 20.1875 645.639 20.4805 645.814 20.8125C645.99 21.1348 646.078 21.4668 646.078 21.8086H648.788C648.788 21.1152 648.637 20.4707 648.334 19.875C648.041 19.2695 647.621 18.7422 647.074 18.293C646.527 17.8438 645.863 17.4922 645.082 17.2383C644.301 16.9844 643.422 16.8574 642.445 16.8574C641.537 16.8574 640.702 16.9795 639.94 17.2236C639.188 17.4678 638.539 17.7998 637.992 18.2197C637.445 18.6396 637.021 19.1328 636.718 19.6992C636.415 20.2559 636.264 20.8564 636.264 21.501C636.264 22.1553 636.41 22.7314 636.703 23.2295C636.996 23.7178 637.411 24.1426 637.948 24.5039C638.476 24.875 639.11 25.1924 639.853 25.4561C640.604 25.7197 641.435 25.9443 642.343 26.1299C643.085 26.2764 643.705 26.4424 644.203 26.6279C644.701 26.8037 645.102 26.999 645.404 27.2139C645.707 27.4287 645.922 27.668 646.049 27.9316C646.176 28.1855 646.239 28.4736 646.239 28.7959ZM660.727 33.293C662.27 33.293 663.563 32.9854 664.608 32.3701C665.663 31.7451 666.454 31.0322 666.981 30.2314L665.326 28.9424C664.828 29.5869 664.203 30.1045 663.451 30.4951C662.699 30.8857 661.84 31.0811 660.873 31.0811C660.141 31.0811 659.472 30.9443 658.866 30.6709C658.261 30.3975 657.743 30.0215 657.313 29.543C656.894 29.0938 656.562 28.5762 656.317 27.9902C656.083 27.4043 655.932 26.7256 655.863 25.9541V25.8516H667.187V24.6357C667.187 23.5322 667.045 22.5068 666.762 21.5596C666.488 20.6123 666.068 19.7871 665.502 19.084C664.936 18.3906 664.223 17.8486 663.363 17.458C662.514 17.0576 661.518 16.8574 660.375 16.8574C659.467 16.8574 658.578 17.043 657.709 17.4141C656.85 17.7852 656.083 18.3174 655.409 19.0107C654.726 19.7139 654.179 20.5732 653.769 21.5889C653.358 22.5947 653.153 23.7373 653.153 25.0166V25.6318C653.153 26.7354 653.339 27.7559 653.71 28.6934C654.081 29.6309 654.599 30.4414 655.263 31.125C655.927 31.8086 656.723 32.3408 657.65 32.7217C658.588 33.1025 659.613 33.293 660.727 33.293ZM660.375 19.084C661.068 19.084 661.664 19.2109 662.162 19.4648C662.67 19.7188 663.09 20.0508 663.422 20.4609C663.754 20.8711 664.013 21.3594 664.198 21.9258C664.384 22.4824 664.477 23.0049 664.477 23.4932V23.625H655.951C656.059 22.8926 656.244 22.248 656.508 21.6914C656.781 21.125 657.113 20.6465 657.504 20.2559C657.895 19.875 658.334 19.5869 658.822 19.3916C659.311 19.1865 659.828 19.084 660.375 19.084Z" fill="white"/>
<path d="M27.907 120.218L42.67 95.366L27.907 70.514H39.25L53.614 95.366L39.193 120.218H27.907ZM82.1113 120.203H56.6172V116H82.1113V120.203Z" fill="#253747"/>
<g filter="url(#filter2_d)">
<circle cx="42" cy="25" r="8" fill="#FB3D42"/>
</g>
<g filter="url(#filter3_d)">
<circle cx="92" cy="25" r="8" fill="#44D688"/>
</g>
<g filter="url(#filter4_d)">
<circle cx="67" cy="25" r="8" fill="#FCCD02"/>
</g>
<defs>
<filter id="filter0_d" x="0" y="0" width="1150" height="58" filterUnits="userSpaceOnUse" color-interpolation-filters="sRGB">
<feFlood flood-opacity="0" result="BackgroundImageFix"/>
<feColorMatrix in="SourceAlpha" type="matrix" values="0 0 0 0 0 0 0 0 0 0 0 0 0 0 0 0 0 0 127 0"/>
<feOffset dy="4"/>
<feGaussianBlur stdDeviation="2"/>
<feColorMatrix type="matrix" values="0 0 0 0 0 0 0 0 0 0 0 0 0 0 0 0 0 0 0.25 0"/>
<feBlend mode="normal" in2="BackgroundImageFix" result="effect1_dropShadow"/>
<feBlend mode="normal" in="SourceGraphic" in2="effect1_dropShadow" result="shape"/>
</filter>
<filter id="filter1_d" x="0" y="50" width="1150" height="358" filterUnits="userSpaceOnUse" color-interpolation-filters="sRGB">
<feFlood flood-opacity="0" result="BackgroundImageFix"/>
<feColorMatrix in="SourceAlpha" type="matrix" values="0 0 0 0 0 0 0 0 0 0 0 0 0 0 0 0 0 0 127 0"/>
<feOffset dy="4"/>
<feGaussianBlur stdDeviation="2"/>
<feColorMatrix type="matrix" values="0 0 0 0 0 0 0 0 0 0 0 0 0 0 0 0 0 0 0.25 0"/>
<feBlend mode="normal" in2="BackgroundImageFix" result="effect1_dropShadow"/>
<feBlend mode="normal" in="SourceGraphic" in2="effect1_dropShadow" result="shape"/>
</filter>
<filter id="filter2_d" x="30" y="17" width="24" height="24" filterUnits="userSpaceOnUse" color-interpolation-filters="sRGB">
<feFlood flood-opacity="0" result="BackgroundImageFix"/>
<feColorMatrix in="SourceAlpha" type="matrix" values="0 0 0 0 0 0 0 0 0 0 0 0 0 0 0 0 0 0 127 0"/>
<feOffset dy="4"/>
<feGaussianBlur stdDeviation="2"/>
<feColorMatrix type="matrix" values="0 0 0 0 0 0 0 0 0 0 0 0 0 0 0 0 0 0 0.25 0"/>
<feBlend mode="normal" in2="BackgroundImageFix" result="effect1_dropShadow"/>
<feBlend mode="normal" in="SourceGraphic" in2="effect1_dropShadow" result="shape"/>
</filter>
<filter id="filter3_d" x="80" y="17" width="24" height="24" filterUnits="userSpaceOnUse" color-interpolation-filters="sRGB">
<feFlood flood-opacity="0" result="BackgroundImageFix"/>
<feColorMatrix in="SourceAlpha" type="matrix" values="0 0 0 0 0 0 0 0 0 0 0 0 0 0 0 0 0 0 127 0"/>
<feOffset dy="4"/>
<feGaussianBlur stdDeviation="2"/>
<feColorMatrix type="matrix" values="0 0 0 0 0 0 0 0 0 0 0 0 0 0 0 0 0 0 0.25 0"/>
<feBlend mode="normal" in2="BackgroundImageFix" result="effect1_dropShadow"/>
<feBlend mode="normal" in="SourceGraphic" in2="effect1_dropShadow" result="shape"/>
</filter>
<filter id="filter4_d" x="55" y="17" width="24" height="24" filterUnits="userSpaceOnUse" color-interpolation-filters="sRGB">
<feFlood flood-opacity="0" result="BackgroundImageFix"/>
<feColorMatrix in="SourceAlpha" type="matrix" values="0 0 0 0 0 0 0 0 0 0 0 0 0 0 0 0 0 0 127 0"/>
<feOffset dy="4"/>
<feGaussianBlur stdDeviation="2"/>
<feColorMatrix type="matrix" values="0 0 0 0 0 0 0 0 0 0 0 0 0 0 0 0 0 0 0.25 0"/>
<feBlend mode="normal" in2="BackgroundImageFix" result="effect1_dropShadow"/>
<feBlend mode="normal" in="SourceGraphic" in2="effect1_dropShadow" result="shape"/>
</filter>
</defs>
</svg>
